<svg width="310" height="310" viewBox="0 0 310 310" fill="currentColor" xmlns="http://www.w3.org/2000/svg">
<path d="M83.8387 164.78H116.724V300.161C116.724 302.834 118.889 305 121.562 305H177.32C179.993 305 182.158 302.834 182.158 300.161V165.418H219.962C222.42 165.418 224.488 163.573 224.769 161.132L230.511 111.291C230.668 109.92 230.234 108.546 229.316 107.518C228.398 106.488 227.084 105.899 225.705 105.899H182.16V74.6561C182.16 65.2381 187.231 60.4623 197.234 60.4623C198.659 60.4623 225.705 60.4623 225.705 60.4623C228.378 60.4623 230.544 58.2955 230.544 55.6235V9.87452C230.544 7.20161 228.378 5.03581 225.705 5.03581H186.468C186.191 5.02226 185.576 5 184.671 5C177.863 5 154.198 6.33645 135.505 23.5332C114.794 42.59 117.673 65.4074 118.361 69.3635V105.898H83.8387C81.1658 105.898 79 108.064 79 110.736V159.94C79 162.613 81.1658 164.78 83.8387 164.78Z" />
</svg>
