<svg width="310" height="310" viewBox="0 0 310 310" fill="currentColor" xmlns="http://www.w3.org/2000/svg">
<path d="M154.958 103.309C126.497 103.309 103.271 126.536 103.271 154.997C103.271 183.458 126.497 206.685 154.958 206.685C183.42 206.685 206.646 183.458 206.646 154.997C206.646 126.536 183.42 103.309 154.958 103.309ZM309.983 154.997C309.983 133.593 310.177 112.383 308.975 91.0176C307.773 66.2013 302.111 44.1768 283.964 26.0299C265.779 7.84418 243.793 2.22174 218.977 1.0197C197.573 -0.182344 176.362 0.0115335 154.997 0.0115335C133.593 0.0115335 112.383 -0.182344 91.0176 1.0197C66.2013 2.22174 44.1768 7.88295 26.0299 26.0299C7.84418 44.2156 2.22174 66.2013 1.0197 91.0176C-0.182344 112.422 0.0115335 133.632 0.0115335 154.997C0.0115335 176.362 -0.182344 197.611 1.0197 218.977C2.22174 243.793 7.88296 265.817 26.0299 283.964C44.2156 302.15 66.2013 307.772 91.0176 308.975C112.422 310.177 133.632 309.983 154.997 309.983C176.401 309.983 197.611 310.177 218.977 308.975C243.793 307.772 265.817 302.111 283.964 283.964C302.15 265.779 307.773 243.793 308.975 218.977C310.215 197.611 309.983 176.401 309.983 154.997V154.997ZM154.958 234.526C110.948 234.526 75.4298 199.007 75.4298 154.997C75.4298 110.987 110.948 75.4686 154.958 75.4686C198.968 75.4686 234.487 110.987 234.487 154.997C234.487 199.007 198.968 234.526 154.958 234.526ZM237.744 90.7849C227.468 90.7849 219.171 82.487 219.171 72.2115C219.171 61.936 227.468 53.638 237.744 53.638C248.019 53.638 256.317 61.936 256.317 72.2115C256.321 74.6514 255.842 77.068 254.91 79.3228C253.978 81.5777 252.61 83.6264 250.884 85.3517C249.159 87.077 247.11 88.445 244.855 89.3773C242.601 90.3097 240.184 90.788 237.744 90.7849V90.7849Z" />
</svg>
