<svg width="310" height="310" viewBox="0 0 310 310" fill="currentColor" xmlns="http://www.w3.org/2000/svg">
<path d="M293.427 63.4012C288.872 65.4218 284.188 67.1272 279.402 68.5117C285.068 62.1037 289.388 54.5637 292.025 46.3127C292.616 44.4633 292.004 42.4389 290.484 41.2293C288.965 40.0188 286.856 39.8738 285.184 40.8645C275.02 46.8927 264.054 51.225 252.556 53.7582C240.974 42.4408 225.243 36 208.981 36C174.653 36 146.725 63.9269 146.725 98.2534C146.725 100.957 146.897 103.646 147.235 106.297C104.638 102.557 65.0364 81.6197 37.842 48.2613C36.8728 47.0723 35.3798 46.4315 33.8512 46.5541C32.3217 46.6738 30.9475 47.5363 30.1748 48.8619C24.6592 58.3262 21.7433 69.1506 21.7433 80.164C21.7433 95.1645 27.0989 109.397 36.5594 120.518C33.6828 119.522 30.8914 118.276 28.2271 116.797C26.7968 116.001 25.0511 116.014 23.6302 116.828C22.2082 117.643 21.3167 119.142 21.2793 120.78C21.2727 121.056 21.2727 121.332 21.2727 121.611C21.2727 144.002 33.3236 164.161 51.7479 175.148C50.1651 174.99 48.5832 174.761 47.0116 174.461C45.3913 174.151 43.7252 174.719 42.6326 175.954C41.5381 177.189 41.176 178.911 41.6803 180.482C48.4999 201.774 66.058 217.435 87.284 222.209C69.6792 233.236 49.5467 239.011 28.4123 239.011C24.0025 239.011 19.5674 238.752 15.2267 238.239C13.0704 237.982 11.0086 239.256 10.2743 241.306C9.53994 243.358 10.3183 245.645 12.1527 246.821C39.3032 264.229 70.697 273.431 102.938 273.431C166.321 273.431 205.971 243.542 228.072 218.468C255.631 187.204 271.437 145.821 271.437 104.932C271.437 103.224 271.411 101.499 271.359 99.7792C282.232 91.5872 291.593 81.673 299.211 70.2779C300.368 68.5472 300.242 66.26 298.902 64.6669C297.563 63.0728 295.332 62.5574 293.427 63.4012Z" />
</svg>
